<svg width="101" height="101" viewBox="0 0 101 101" fill="none" xmlns="http://www.w3.org/2000/svg">
<path d="M50.5 0.475342C22.879 0.475342 0.5 22.8544 0.5 50.4753C0.5 78.0963 22.879 100.475 50.5 100.475C78.121 100.475 100.5 78.0963 100.5 50.4753C100.5 22.8544 78.121 0.475342 50.5 0.475342ZM50.5 90.7979C28.2621 90.7979 10.1774 72.7132 10.1774 50.4753C10.1774 28.2374 28.2621 10.1528 50.5 10.1528C72.7379 10.1528 90.8226 28.2374 90.8226 50.4753C90.8226 72.7132 72.7379 90.7979 50.5 90.7979ZM52.1129 60.1528C49.4516 60.1528 47.2742 62.3302 47.2742 64.9915C47.2742 67.6528 49.4516 69.8302 52.1129 69.8302C56.9113 69.8302 61.4476 71.9471 64.5323 75.6366C66.1653 77.6124 69.2097 78.0358 71.3468 76.2616C73.4032 74.5479 73.6855 71.5036 71.9718 69.4471C67.0323 63.5399 59.7944 60.1528 52.1129 60.1528ZM34.371 47.2495C37.9395 47.2495 40.8226 44.3665 40.8226 40.7979C40.8226 37.2294 37.9395 34.3463 34.371 34.3463C30.8024 34.3463 27.9194 37.2294 27.9194 40.7979C27.9194 44.3665 30.8024 47.2495 34.371 47.2495ZM66.629 34.3463C63.0605 34.3463 60.1774 37.2294 60.1774 40.7979C60.1774 44.3665 63.0605 47.2495 66.629 47.2495C70.1976 47.2495 73.0806 44.3665 73.0806 40.7979C73.0806 37.2294 70.1976 34.3463 66.629 34.3463ZM33.2419 54.2657C30.9435 57.3503 25.9032 64.4673 25.9032 67.9955C25.9032 72.5721 29.6935 76.2818 34.371 76.2818C39.0484 76.2818 42.8387 72.5721 42.8387 67.9955C42.8387 64.4673 37.7984 57.3503 35.5 54.2657C34.9355 53.5197 33.8065 53.5197 33.2419 54.2657Z" fill="#253393"/>
</svg>
