<svg width="21" height="131" viewBox="0 0 21 131" fill="none" xmlns="http://www.w3.org/2000/svg">
<path fill-rule="evenodd" clip-rule="evenodd" d="M13.6702 127.578C13.3124 127.37 13.3451 127.108 13.7434 126.995C14.1417 126.881 14.7547 126.958 15.1126 127.166L18.7508 129.286L18.7508 0.75C18.7508 0.335786 19.0866 0 19.5008 0C19.915 0 20.2508 0.335786 20.2508 0.75L20.2508 130.461H19.4397C19.2873 130.481 19.1182 130.48 18.9506 130.461H18.7508V130.429C18.5667 130.391 18.3937 130.33 18.2575 130.251L13.6702 127.578Z" fill="#2C2C2C"/>
<path d="M9.16797 29.9585V28.1335H10.8346V29.9585H9.16797ZM10.8346 26.3085H12.5013V28.1335H10.8346V26.3085ZM10.8346 24.4835V26.3085H9.16797V24.4835H10.8346ZM10.8346 22.6586H12.5013V24.4835H10.8346V22.6586ZM10.8346 22.6586H9.16797V20.8336H10.8346V22.6586Z" fill="#2C2C2C"/>
<path d="M0 25.5126L0 25.2881C0 24.8464 0.3275 24.4878 0.730833 24.4878H1.66667L1.66667 19.1747C1.66667 18.4355 2.025 17.7438 2.61667 17.3806L6.72083 14.7998C6.96417 13.5477 7.99417 12.6361 9.1875 12.6242H14.1375C15.5275 12.6242 16.6667 13.8407 16.6667 15.3601V16.5821C17.1657 16.841 17.5873 17.2497 17.8826 17.7606C18.1779 18.2716 18.3346 18.8639 18.3346 19.4686C18.3346 20.0733 18.1779 20.6655 17.8826 21.1765C17.5873 21.6875 17.1657 22.0962 16.6667 22.3551V30.2708C17.1657 30.5297 17.5873 30.9384 17.8826 31.4494C18.1779 31.9604 18.3346 32.5526 18.3346 33.1573C18.3346 33.762 18.1779 34.3543 17.8826 34.8653C17.5873 35.3762 17.1657 35.7849 16.6667 36.0438V37.2667C16.6667 38.7989 15.5133 40.0017 14.1375 40.0017H10.8333C9.625 40.0017 8.07083 39.0252 7.51417 36.9491L6.8025 34.2716L2.775 32.294C2.44439 32.1293 2.16407 31.8639 1.96753 31.5294C1.77099 31.1949 1.66654 30.8055 1.66667 30.4077L1.66667 26.313H0.730833C0.3275 26.313 0 25.9543 0 25.5126ZM10.8333 38.1765V36.9738C10.8333 36.6334 11.15 36.3514 11.53 36.3514H12.6367C13.0175 36.3514 13.3333 36.6251 13.3333 36.9738V38.1765H14.1375C14.6275 38.1765 15 37.7549 15 37.2658V36.3194C14.3048 36.2109 13.6686 35.8314 13.2084 35.2505C12.7482 34.6696 12.4948 33.9264 12.4948 33.1573C12.4948 32.3883 12.7482 31.645 13.2084 31.0642C13.6686 30.4833 14.3048 30.1037 15 29.9952L15 22.6307C14.3057 22.5208 13.6709 22.1407 13.2117 21.5599C12.7525 20.9792 12.4998 20.2367 12.4998 19.4686C12.4998 18.7004 12.7525 17.9579 13.2117 17.3772C13.6709 16.7965 14.3057 16.4163 15 16.3065V15.3601C15 14.8737 14.63 14.4494 14.1375 14.4494H13.3333V14.9193C13.3328 15.0983 13.3 15.2754 13.2368 15.4404C13.1737 15.6054 13.0814 15.7552 12.9652 15.8811C12.8491 16.007 12.7114 16.1066 12.5601 16.1741C12.4088 16.2416 12.2467 16.2757 12.0833 16.2745C11.3975 16.2745 10.8333 15.6731 10.8333 14.9193V14.4494H9.2C8.705 14.4557 8.33333 14.8819 8.33333 15.3692V23.7157C8.33333 24.1446 7.99167 24.4878 7.56667 24.4878H4.93333C4.50833 24.4878 4.16667 24.1446 4.16667 23.7157V18.5104L3.44167 18.9667L3.43167 18.973C3.40052 18.9942 3.37503 19.024 3.35777 19.0594C3.3405 19.0948 3.33207 19.1346 3.33333 19.1747L3.33333 30.4086C3.33328 30.4559 3.34567 30.5023 3.36902 30.5421C3.39237 30.5819 3.42569 30.6135 3.465 30.6331L4.17083 30.9799L4.17583 27.106C4.17583 26.6652 4.5175 26.313 4.9425 26.313H7.56667C7.99167 26.313 8.33333 26.6652 8.33333 27.106V33.4986L9.11333 36.4344C9.46667 37.7449 10.3758 38.1765 10.8333 38.1765ZM16.6667 33.1573C16.6667 32.7943 16.535 32.4461 16.3006 32.1894C16.0661 31.9327 15.7482 31.7885 15.4167 31.7885C15.0851 31.7885 14.7672 31.9327 14.5328 32.1894C14.2984 32.4461 14.1667 32.7943 14.1667 33.1573C14.1667 33.5204 14.2984 33.8686 14.5328 34.1253C14.7672 34.382 15.0851 34.5262 15.4167 34.5262C15.7482 34.5262 16.0661 34.382 16.3006 34.1253C16.535 33.8686 16.6667 33.5204 16.6667 33.1573ZM16.6667 19.4686C16.6667 19.1055 16.535 18.7573 16.3006 18.5006C16.0661 18.2439 15.7482 18.0997 15.4167 18.0997C15.0851 18.0997 14.7672 18.2439 14.5328 18.5006C14.2984 18.7573 14.1667 19.1055 14.1667 19.4686C14.1667 19.8316 14.2984 20.1798 14.5328 20.4365C14.7672 20.6932 15.0851 20.8374 15.4167 20.8374C15.7482 20.8374 16.0661 20.6932 16.3006 20.4365C16.535 20.1798 16.6667 19.8316 16.6667 19.4686Z" fill="#2C2C2C"/>
</svg>
